<svg xmlns="http://www.w3.org/2000/svg" width="1200" height="14369" viewBox="0 0 1200 14369"><g fill="#ECD099"><g transform="translate(861 350) rotate(90) scale(2.5)"><rect x="-111" y="-55" width="222" height="155"/></g><g transform="translate(444 1283) rotate(0) scale(2.5)"><rect x="-108" y="-55" width="216" height="143"/></g><g transform="translate(352 1979) rotate(0) scale(2.5)"><circle r="100"/></g><g transform="translate(926 2754) rotate(270) scale(2.5)"><rect x="-111" y="-55" width="222" height="128"/></g><g transform="translate(370 3611) rotate(0) scale(2.5)"><path d="M-74 0a74 74 0 0 1 148 0Z"/></g><g transform="translate(545 4517) rotate(0) scale(2.5)"><rect x="-82" y="-55" width="164" height="130"/></g><g transform="translate(899 5417) rotate(0) scale(2.5)"><circle r="96"/></g><g transform="translate(322 6321) rotate(90) scale(2.5)"><circle r="99"/></g><g transform="translate(759 7150) rotate(0) scale(2.5)"><rect x="-68" y="-55" width="136" height="153"/></g><g transform="translate(368 7898) rotate(270) scale(2.5)"><rect x="-84" y="-55" width="168" height="96"/></g><g transform="translate(376 8654) rotate(90) scale(2.5)"><circle r="92"/></g><g transform="translate(973 9577) rotate(180) scale(2.5)"><path d="M-102 0a102 102 0 0 1 204 0Z"/></g><g transform="translate(707 10269) rotate(0) scale(2.5)"><circle r="67"/></g><g transform="translate(540 10950) rotate(270) scale(2.5)"><path d="M-78 0a78 78 0 0 1 156 0Z"/></g><g transform="translate(604 11675) rotate(270) scale(2.5)"><circle r="79"/></g><g transform="translate(523 12521) rotate(0) scale(2.5)"><path d="M-103 0a103 103 0 0 1 206 0Z"/></g><g transform="translate(447 13226) rotate(0) scale(2.5)"><path d="M-103 0a103 103 0 0 1 206 0Z"/></g><g transform="translate(940 13969) rotate(90) scale(2.5)"><path d="M-110 0a110 110 0 0 1 220 0Z"/></g></g></svg>